# xmcd
#
# Track frame offsets:
#	150
#	18110
#	37067
#	53422
#	71105
#	89737
#	112057
#	130877
#	151297
#	174537
#
# Disc length: 2524 seconds
#
# Revision: 8
# Processed by: cddbd v1.5.2PL0 Copyright (c) Steve Scherf et al.
# Submitted via: EZCDAudioConverter 2.1.7.1
#
DISCID=8509da0a
DTITLE=Billy Idol - Billy Idol (1982)
DYEAR=1982
DGENRE=
TTITLE0=Billy Idol - Come On, Come On
TTITLE1=Billy Idol - White Wedding (Part 1)
TTITLE2=Billy Idol - Hot In The City
TTITLE3=Billy Idol - Dead On Arrival
TTITLE4=Billy Idol - Nobody's Business
TTITLE5=Billy Idol - Love Calling
TTITLE6=Billy Idol - Hole In The Wall
TTITLE7=Billy Idol - Shooting Stars
TTITLE8=Billy Idol - It's So Cruel
TTITLE9=Generation X - Dancing With Myself
EXTD=
EXTT0=
EXTT1=
EXTT2=
EXTT3=
EXTT4=
EXTT5=
EXTT6=
EXTT7=
EXTT8=
EXTT9=
PLAYORDER=
